<svg xmlns="http://www.w3.org/2000/svg" xmlns:xlink="http://www.w3.org/1999/xlink" width="1024" zoomAndPan="magnify" viewBox="0 0 768 767.999994" height="1024" preserveAspectRatio="xMidYMid meet" version="1.0"><path fill="#f5fdf1" d="M 384 0 C 171.886719 0 0 171.886719 0 384 C 0 596.113281 171.886719 768 384 768 C 596.113281 768 768 596.113281 768 384 C 767.667969 171.886719 595.78125 0 384 0 Z M 608.082031 297.558594 C 608.082031 297.558594 614.730469 444.507812 503.023438 535.605469 C 335.792969 671.585938 155.261719 561.207031 155.261719 561.207031 C 155.261719 561.207031 199.148438 561.871094 238.046875 551.5625 C 276.613281 541.257812 304.539062 515.988281 304.539062 515.988281 C 304.539062 515.988281 262.316406 507.34375 240.375 491.386719 C 218.429688 475.429688 209.785156 444.839844 209.785156 444.839844 C 209.785156 444.839844 224.414062 446.171875 233.390625 445.839844 C 242.703125 445.507812 253.671875 441.183594 253.671875 441.183594 C 253.671875 441.183594 223.417969 437.527344 195.160156 405.941406 C 172.882812 381.007812 174.546875 339.449219 174.546875 339.449219 C 174.546875 339.449219 187.84375 347.429688 194.824219 349.089844 C 201.808594 351.085938 215.4375 351.085938 215.4375 351.085938 C 215.4375 351.085938 188.839844 335.460938 177.207031 294.566406 C 165.570312 254.003906 187.84375 212.78125 187.84375 212.78125 C 187.84375 212.78125 227.40625 260.65625 285.921875 291.242188 C 344.4375 321.828125 399.625 320.832031 399.625 320.832031 C 399.625 320.832031 391.648438 296.5625 405.609375 260.65625 C 419.574219 224.75 451.160156 198.816406 499.367188 195.160156 C 547.574219 191.167969 578.492188 227.742188 578.492188 227.742188 C 578.492188 227.742188 593.453125 225.082031 610.410156 218.761719 C 627.367188 212.777344 644.320312 204.800781 644.320312 204.800781 C 644.320312 204.800781 638.335938 223.085938 626.703125 237.382812 C 615.066406 251.679688 602.097656 260.320312 602.097656 260.320312 C 602.097656 260.320312 617.390625 259.324219 632.6875 255.003906 C 647.980469 250.679688 656.289062 246.359375 656.289062 246.359375 C 638.671875 275.617188 608.082031 297.558594 608.082031 297.558594 Z M 608.082031 297.558594 " fill-opacity="1" fill-rule="nonzero"/></svg>